<svg width="24" height="24" viewBox="0 0 24 24" fill="none" xmlns="http://www.w3.org/2000/svg">
<g clip-path="url(#clip0_14_3380)">
<path d="M23.0344 7.28437L20.2031 10.1062C19.6406 16.6594 14.1094 21.75 7.50001 21.75C6.14063 21.75 5.01563 21.5344 4.16251 21.1125C3.47813 20.7656 3.19688 20.4 3.12188 20.2875C3.05983 20.1932 3.01984 20.0862 3.0049 19.9744C2.98996 19.8625 3.00046 19.7487 3.0356 19.6415C3.07074 19.5343 3.12963 19.4363 3.20788 19.355C3.28612 19.2737 3.3817 19.2111 3.48751 19.1719C3.50626 19.1625 5.71876 18.3187 7.15313 16.6969C6.26358 16.0635 5.48171 15.2911 4.83751 14.4094C3.55313 12.6656 2.19376 9.6375 3.00938 5.11875C3.03502 4.98441 3.09646 4.85949 3.18722 4.75718C3.27798 4.65487 3.39468 4.57897 3.52501 4.5375C3.65574 4.49469 3.79574 4.48866 3.92967 4.52008C4.0636 4.55149 4.18632 4.61914 4.28438 4.71562C4.31251 4.75312 7.43438 7.82812 11.25 8.82187V8.25C11.2537 7.65535 11.3745 7.06725 11.6054 6.51928C11.8364 5.97132 12.173 5.47421 12.5961 5.05634C13.0192 4.63847 13.5205 4.30804 14.0713 4.08389C14.6221 3.85975 15.2116 3.74629 15.8063 3.75C16.5867 3.76113 17.351 3.97423 18.0246 4.36854C18.6982 4.76285 19.2582 5.32492 19.65 6H22.5C22.6481 5.99953 22.793 6.04291 22.9164 6.12466C23.0399 6.20641 23.1364 6.32287 23.1938 6.45937C23.2478 6.5979 23.2615 6.74891 23.2333 6.8949C23.2051 7.0409 23.1361 7.17593 23.0344 7.28437Z" fill="#292929"/>
</g>
<defs>
<clipPath id="clip0_14_3380">
<rect width="24" height="24" fill="white"/>
</clipPath>
</defs>
</svg>
